<?xml version="1.0" encoding="UTF-8" standalone="no"?>
<svg width="30px" height="18px" viewBox="0 0 30 18" version="1.1" xmlns="http://www.w3.org/2000/svg" xmlns:xlink="http://www.w3.org/1999/xlink">
    <!-- Generator: Sketch 39.1 (31720) - http://www.bohemiancoding.com/sketch -->
    <title>noun_411967_cc</title>
    <desc>Created with Sketch.</desc>
    <defs></defs>
    <g id="Page-1" stroke="none" stroke-width="1" fill="none" fill-rule="evenodd">
        <g id="Desktop-HD-Copy" transform="translate(-48.000000, -54.000000)">
            <g id="Group-8" transform="translate(0.000000, 33.000000)">
                <g id="noun_411967_cc" transform="translate(63.000000, 30.000000) scale(-1, 1) translate(-63.000000, -30.000000) translate(48.000000, 21.000000)">
                    <g id="Group">
                        <g id="Shape">
                            <path d="M0.187110727,4.505625 L0.187110727,13.495125 L7.7300346,17.9895 L15.2722318,13.495125 L15.2722318,10.940625 C14.9230796,11.1735 14.5078028,11.30925 14.0612803,11.30925 C12.8256228,11.30925 11.824308,10.275 11.824308,9 C11.824308,7.725 12.8256228,6.6915 14.0612803,6.6915 C14.5078028,6.6915 14.9230796,6.8265 15.2722318,7.059 L15.2722318,4.50525 L7.7300346,0.0105 L0.187110727,4.505625 L0.187110727,4.505625 Z" fill-opacity="0.999971694" fill="#FFFFFF"></path>
                            <path d="M12.6825772,6.56532988 C11.5539143,5.60806849 11.4480623,8.07975908 11.4480623,8.999625 C11.4480623,9.98475 10.4939792,11.5097668 11.4480623,11.5097668 C12.1470934,11.5097668 12.9038927,13.1366296 13.1760207,12.5201296 L14.7481142,13.488 L22.2805017,17.97675 L29.8121626,13.488 L29.8121626,4.511625 L22.2805017,0.02325 L14.7481142,4.511625 C14.7481142,4.511625 13.81124,7.52259127 12.6825772,6.56532988 Z" fill-opacity="0.382218071" fill="#F8F8F8"></path>
                        </g>
                    </g>
                </g>
            </g>
        </g>
    </g>
</svg>
