<?xml version="1.0" encoding="UTF-8" standalone="no"?>
<svg
   xmlns:dc="http://purl.org/dc/elements/1.1/"
   xmlns:cc="http://creativecommons.org/ns#"
   xmlns:rdf="http://www.w3.org/1999/02/22-rdf-syntax-ns#"
   xmlns:svg="http://www.w3.org/2000/svg"
   xmlns="http://www.w3.org/2000/svg"
   xmlns:sodipodi="http://sodipodi.sourceforge.net/DTD/sodipodi-0.dtd"
   xmlns:inkscape="http://www.inkscape.org/namespaces/inkscape"
   version="1.1"
   x="0px"
   y="0px"
   viewBox="0 0 32 40"
   enable-background="new 0 0 32 32"
   xml:space="preserve"
   id="svg2"
   inkscape:version="0.91 r13725"
   sodipodi:docname="icon-feedback.svg"><metadata
     id="metadata52"><rdf:RDF><cc:Work
         rdf:about=""><dc:format>image/svg+xml</dc:format><dc:type
           rdf:resource="http://purl.org/dc/dcmitype/StillImage" /></cc:Work></rdf:RDF></metadata><defs
     id="defs50" /><sodipodi:namedview
     pagecolor="#ffffff"
     bordercolor="#666666"
     borderopacity="1"
     objecttolerance="10"
     gridtolerance="10"
     guidetolerance="10"
     inkscape:pageopacity="0"
     inkscape:pageshadow="2"
     inkscape:window-width="961"
     inkscape:window-height="603"
     id="namedview48"
     showgrid="false"
     inkscape:zoom="5.9"
     inkscape:cx="-8.7457627"
     inkscape:cy="26.779661"
     inkscape:window-x="2148"
     inkscape:window-y="96"
     inkscape:window-maximized="0"
     inkscape:current-layer="svg2" /><g
     display="none"
     id="g4"><rect
       x="-406.083"
       y="-85.583"
       display="inline"
       fill="#000000"
       width="465.553"
       height="215.397"
       id="rect6" /></g><g
     display="none"
     id="g8"><path
       display="inline"
       fill="#000000"
       stroke="#414753"
       stroke-miterlimit="10"
       d="M26.668,0.5H12.182   c-0.579,0-1.054,0.475-1.054,1.055v9.68c0,0.58,0.474,1.055,1.054,1.055h8.694l4.977,3.481l-0.001-3.481h0.815   c0.58,0,1.054-0.475,1.054-1.055v-9.68C27.721,0.974,27.247,0.5,26.668,0.5z"
       id="path10" /><path
       display="inline"
       fill="#000000"
       stroke="#414753"
       stroke-miterlimit="10"
       d="M19.818,15.77H5.332   c-0.579,0-1.054,0.475-1.054,1.055v9.68c0,0.58,0.474,1.055,1.054,1.055h8.694l4.977,3.481l-0.001-3.481h0.815   c0.58,0,1.054-0.475,1.054-1.055v-9.68C20.871,16.245,20.397,15.77,19.818,15.77z"
       id="path12" /><polyline
       display="inline"
       fill="#000000"
       stroke="#414753"
       stroke-miterlimit="10"
       points="11.129,5.984 7.755,5.984 7.755,15.714     "
       id="polyline14" /></g><g
     display="none"
     id="g16"><g
       display="inline"
       id="g18"><g
         id="g20"><path
           d="M27.177,0.5c0.333,0,0.604,0.272,0.604,0.605v10.142c0,0.334-0.271,0.605-0.604,0.605h-0.854h-0.5l0,0.5l0.001,2.687     l-4.428-3.097l-0.129-0.09h-0.157H12c-0.333,0-0.604-0.272-0.604-0.605V1.105C11.396,0.772,11.667,0.5,12,0.5H27.177 M27.177,0     H12c-0.607,0-1.104,0.497-1.104,1.105v10.142c0,0.608,0.497,1.105,1.104,1.105h9.11L26.324,16l-0.001-3.647h0.854     c0.607,0,1.104-0.497,1.104-1.105V1.105C28.281,0.497,27.785,0,27.177,0L27.177,0z"
           id="path22" /></g><g
         id="g24"><path
           d="M20,16.5c0.333,0,0.604,0.272,0.604,0.605v10.142c0,0.334-0.271,0.605-0.604,0.605h-0.854h-0.5l0,0.5l0.001,2.687     l-4.428-3.097l-0.129-0.09h-0.157h-9.11c-0.333,0-0.604-0.272-0.604-0.605V17.105c0-0.334,0.271-0.605,0.604-0.605H20 M20,16     H4.823c-0.607,0-1.104,0.497-1.104,1.105v10.142c0,0.608,0.497,1.105,1.104,1.105h9.11L19.147,32l-0.001-3.647H20     c0.607,0,1.104-0.497,1.104-1.105V17.105C21.104,16.497,20.607,16,20,16L20,16z"
           id="path26" /></g><polyline
         fill="none"
         stroke="#000000"
         stroke-width="0.5"
         stroke-miterlimit="10"
         points="10.896,5.746 7.361,5.746     7.361,15.941   "
         id="polyline28" /></g></g><g
     id="g30"
     transform="translate(0,4)"><g
       id="g32"><path
         d="m 28.281,11.248 0,-10.143 C 28.281,0.497 27.785,0 27.177,0 L 12,0 c -0.607,0 -1.104,0.497 -1.104,1.105 l 0,10.142 c 0,0.608 0.497,1.105 1.104,1.105 l 9.11,0 5.214,3.648 -0.001,-3.647 0.854,0 c 0.608,0 1.104,-0.497 1.104,-1.105 z m -2,-0.895 -1.958,0 0,1.807 -2.068,-1.446 -0.516,-0.361 -0.63,0 -8.214,0 0,-8.353 13.386,0 0,8.353 z"
         id="path34"
         style="fill:#ffffff;fill-opacity:1"
         inkscape:connector-curvature="0" /><path
         d="m 3.719,17.105 0,10.142 c 0,0.608 0.497,1.105 1.104,1.105 l 9.11,0 5.214,3.648 -10e-4,-3.647 0.854,0 c 0.607,0 1.104,-0.497 1.104,-1.105 l 0,-10.143 C 21.104,16.497 20.607,16 20,16 L 4.823,16 c -0.608,0 -1.104,0.497 -1.104,1.105 z m 2,0.895 13.386,0 0,8.353 -1.958,0 0,1.807 -2.068,-1.446 -0.516,-0.361 -0.63,0 -8.214,0 0,-8.353 z"
         id="path36"
         style="fill:#ffffff;fill-opacity:1"
         inkscape:connector-curvature="0" /><polygon
         points="8.361,15.94 8.361,6.746 10.896,6.746 10.896,4.746 6.361,4.746 6.361,15.94 "
         id="polygon38"
         style="fill:#ffffff;fill-opacity:1" /></g></g><g
     display="none"
     id="g40"><path
       display="inline"
       d="M3.778,16.825v9.68c0,0.857,0.697,1.555,1.554,1.555h8.537L19.504,32l-0.001-3.94h0.314   c0.856,0,1.554-0.697,1.554-1.555v-9.68c0-0.857-0.697-1.555-1.554-1.555H8.255V6.483h2.374v4.751c0,0.857,0.697,1.555,1.554,1.555   h8.537l5.634,3.941l-0.001-3.941h0.315c0.856,0,1.554-0.697,1.554-1.555v-9.68C28.222,0.697,27.524,0,26.668,0H12.183   c-0.856,0-1.554,0.697-1.554,1.555v3.929H7.255v9.787H5.332C4.476,15.271,3.778,15.968,3.778,16.825z"
       id="path42" /></g></svg>