<?xml version="1.0" encoding="UTF-8" standalone="no"?>
<svg width="14px" height="18px" viewBox="0 0 14 18" version="1.1" xmlns="http://www.w3.org/2000/svg" xmlns:xlink="http://www.w3.org/1999/xlink">
    <!-- Generator: Sketch 39.1 (31720) - http://www.bohemiancoding.com/sketch -->
    <title>Material/Icons black/delete</title>
    <desc>Created with Sketch.</desc>
    <defs></defs>
    <g id="Page-1" stroke="none" stroke-width="1" fill="none" fill-rule="evenodd" opacity="0.298332556">
        <g id="Desktop-HD" transform="translate(-1122.000000, -129.000000)" fill="#000000">
            <g id="Group-13" transform="translate(1120.000000, 128.000000)">
                <g id="Material/Icons-black/delete" transform="translate(0.000000, 1.000000)">
                    <path d="M5.999,7 L5.999,19 C5.999,20.104 6.895,21 8,21 L15.999,21 C17.105,21 17.999,20.104 17.999,19 L17.999,7 L5.999,7 Z M14.499,2.999 L9.499,2.999 L8.5,4 L5.999,4 C5.448,4 5,4.448 5,4.999 L5,6 L19,6 L19,4.999 C19,4.448 18.552,4 17.999,4 L15.5,4 L14.499,2.999" id="Fill-3"></path>
                </g>
            </g>
        </g>
    </g>
</svg>