<?xml version="1.0" encoding="UTF-8" standalone="no"?>
<svg
   xmlns:dc="http://purl.org/dc/elements/1.1/"
   xmlns:cc="http://creativecommons.org/ns#"
   xmlns:rdf="http://www.w3.org/1999/02/22-rdf-syntax-ns#"
   xmlns:svg="http://www.w3.org/2000/svg"
   xmlns="http://www.w3.org/2000/svg"
   xmlns:sodipodi="http://sodipodi.sourceforge.net/DTD/sodipodi-0.dtd"
   xmlns:inkscape="http://www.inkscape.org/namespaces/inkscape"
   version="1.1"
   x="0px"
   y="0px"
   viewBox="0 0 32 40"
   enable-background="new 0 0 32 32"
   xml:space="preserve"
   id="svg2"
   inkscape:version="0.91 r13725"
   sodipodi:docname="icon-alignment.svg"><metadata
     id="metadata146"><rdf:RDF><cc:Work
         rdf:about=""><dc:format>image/svg+xml</dc:format><dc:type
           rdf:resource="http://purl.org/dc/dcmitype/StillImage" /><dc:title></dc:title></cc:Work></rdf:RDF></metadata><defs
     id="defs144" /><sodipodi:namedview
     pagecolor="#ffffff"
     bordercolor="#666666"
     borderopacity="1"
     objecttolerance="10"
     gridtolerance="10"
     guidetolerance="10"
     inkscape:pageopacity="0"
     inkscape:pageshadow="2"
     inkscape:window-width="1186"
     inkscape:window-height="823"
     id="namedview142"
     showgrid="false"
     inkscape:zoom="5.9"
     inkscape:cx="15.830508"
     inkscape:cy="14.425703"
     inkscape:window-x="1811"
     inkscape:window-y="91"
     inkscape:window-maximized="0"
     inkscape:current-layer="svg2" /><g
     display="none"
     id="g4"><rect
       x="-367.083"
       y="-85.583"
       display="inline"
       fill="#000000"
       width="465.553"
       height="215.397"
       id="rect6" /></g><g
     display="none"
     id="g8"><g
       display="inline"
       id="g10"><g
         id="g12"><g
           id="g14"><path
             fill="#000000"
             d="M7.416,9.089c1.466,0,2.659,1.193,2.659,2.659s-1.193,2.659-2.659,2.659      c-1.466,0-2.659-1.193-2.659-2.659S5.95,9.089,7.416,9.089 M7.416,8.089c-2.021,0-3.659,1.638-3.659,3.659      s1.638,3.659,3.659,3.659c2.021,0,3.659-1.638,3.659-3.659S9.437,8.089,7.416,8.089L7.416,8.089z"
             id="path16" /></g></g><g
         id="g18"><g
           id="g20"><path
             fill="#000000"
             d="M3.1,17.317l2.58,5.594H1v-3.203C1,18.003,2.269,17.478,3.1,17.317 M3.708,16.247      c0,0-3.708,0.049-3.708,3.461s0,4.203,0,4.203s7.218,0,7.243,0L3.708,16.247L3.708,16.247z M7.243,23.911L7.243,23.911      L7.243,23.911L7.243,23.911z"
             id="path22" /></g></g><g
         id="g24"><g
           id="g26"><path
             fill="#000000"
             d="M11.733,17.316c0.812,0.159,2.1,0.681,2.1,2.392v3.203H9.152L11.733,17.316 M11.124,16.247l-3.535,7.664      h0h7.243c0,0,0-0.791,0-4.203S11.124,16.247,11.124,16.247L11.124,16.247z"
             id="path28" /></g></g><g
         id="g30"><g
           id="g32"><path
             fill="#000000"
             d="M8.414,17.247l-0.997,2.207l-0.997-2.207h0.997H8.414 M9.963,16.247H7.416H4.87l2.546,5.636      L9.963,16.247L9.963,16.247z"
             id="path34" /></g></g></g><g
       display="inline"
       id="g36"><g
         id="g38"><g
           id="g40"><path
             fill="#000000"
             d="M24.584,9.089c1.466,0,2.659,1.193,2.659,2.659s-1.193,2.659-2.659,2.659      c-1.466,0-2.659-1.193-2.659-2.659S23.118,9.089,24.584,9.089 M24.584,8.089c-2.021,0-3.659,1.638-3.659,3.659      s1.638,3.659,3.659,3.659c2.021,0,3.659-1.638,3.659-3.659S26.604,8.089,24.584,8.089L24.584,8.089z"
             id="path42" /></g></g><g
         id="g44"><g
           id="g46"><path
             fill="#000000"
             d="M20.268,17.317l2.58,5.594h-4.681v-3.203C18.167,18.003,19.437,17.478,20.268,17.317 M20.876,16.247      c0,0-3.708,0.049-3.708,3.461s0,4.203,0,4.203s7.218,0,7.243,0L20.876,16.247L20.876,16.247z M24.411,23.911L24.411,23.911      L24.411,23.911L24.411,23.911z"
             id="path48" /></g></g><g
         id="g50"><g
           id="g52"><path
             fill="#000000"
             d="M28.9,17.316c0.812,0.159,2.1,0.681,2.1,2.392v3.203h-4.681L28.9,17.316 M28.292,16.247l-3.535,7.664h0      H32c0,0,0-0.791,0-4.203S28.292,16.247,28.292,16.247L28.292,16.247z"
             id="path54" /></g></g><g
         id="g56"><g
           id="g58"><path
             fill="#000000"
             d="M25.581,17.247l-0.997,2.207l-0.997-2.207h0.997H25.581 M27.13,16.247h-2.546h-2.546l2.546,5.636      L27.13,16.247L27.13,16.247z"
             id="path60" /></g></g></g></g><g
     display="none"
     id="g62"><g
       display="inline"
       id="g64"><g
         id="g66"><path
           d="M7.416,8.589c1.742,0,3.159,1.417,3.159,3.159s-1.417,3.159-3.159,3.159c-1.742,0-3.159-1.417-3.159-3.159     S5.675,8.589,7.416,8.589 M7.416,8.089c-2.021,0-3.659,1.638-3.659,3.659s1.638,3.659,3.659,3.659     c2.021,0,3.659-1.638,3.659-3.659S9.437,8.089,7.416,8.089L7.416,8.089z"
           id="path68" /></g><g
         id="g70"><path
           d="M3.4,16.772l3.062,6.639H0.5v-3.703C0.5,17.349,2.585,16.869,3.4,16.772 M3.708,16.247c0,0-3.708,0.049-3.708,3.461     s0,4.203,0,4.203s7.218,0,7.243,0L3.708,16.247L3.708,16.247z M7.243,23.911L7.243,23.911L7.243,23.911L7.243,23.911z"
           id="path72" /></g><g
         id="g74"><path
           d="M11.434,16.77c0.814,0.094,2.899,0.566,2.899,2.938v3.703H8.371L11.434,16.77 M11.124,16.247l-3.535,7.664h0h7.243     c0,0,0-0.791,0-4.203S11.124,16.247,11.124,16.247L11.124,16.247z"
           id="path76" /></g><g
         id="g78"><path
           d="M9.188,16.747l-1.772,3.922l-1.772-3.922h1.772H9.188 M9.963,16.247H7.416H4.87l2.546,5.636L9.963,16.247L9.963,16.247z"
           id="path80" /></g></g><g
       display="inline"
       id="g82"><g
         id="g84"><path
           d="M24.584,8.589c1.742,0,3.159,1.417,3.159,3.159s-1.417,3.159-3.159,3.159c-1.742,0-3.159-1.417-3.159-3.159     S22.842,8.589,24.584,8.589 M24.584,8.089c-2.021,0-3.659,1.638-3.659,3.659s1.638,3.659,3.659,3.659     c2.021,0,3.659-1.638,3.659-3.659S26.604,8.089,24.584,8.089L24.584,8.089z"
           id="path86" /></g><g
         id="g88"><path
           d="M20.567,16.772l3.062,6.639h-5.962v-3.703C17.667,17.349,19.752,16.869,20.567,16.772 M20.876,16.247     c0,0-3.708,0.049-3.708,3.461s0,4.203,0,4.203s7.218,0,7.243,0L20.876,16.247L20.876,16.247z M24.411,23.911L24.411,23.911     L24.411,23.911L24.411,23.911z"
           id="path90" /></g><g
         id="g92"><path
           d="M28.601,16.77c0.814,0.094,2.899,0.566,2.899,2.938v3.703h-5.962L28.601,16.77 M28.292,16.247l-3.535,7.664h0H32     c0,0,0-0.791,0-4.203S28.292,16.247,28.292,16.247L28.292,16.247z"
           id="path94" /></g><g
         id="g96"><path
           d="M26.355,16.747l-1.772,3.922l-1.772-3.922h1.772H26.355 M27.13,16.247h-2.546h-2.546l2.546,5.636L27.13,16.247     L27.13,16.247z"
           id="path98" /></g></g></g><g
     id="g100"
     transform="translate(0,4)"><g
       id="g102"><path
         d="m 3.758,11.748 c 0,2.021 1.638,3.659 3.659,3.659 2.021,0 3.659,-1.638 3.659,-3.659 0,-2.021 -1.638,-3.659 -3.659,-3.659 -2.021,0 -3.659,1.638 -3.659,3.659 z m 5.317,0 c 0,0.915 -0.744,1.659 -1.659,1.659 -0.915,0 -1.659,-0.744 -1.659,-1.659 0,-0.915 0.744,-1.659 1.659,-1.659 0.915,0 1.659,0.744 1.659,1.659 z"
         id="path104"
         style="fill:#ffffff;fill-opacity:1"
         inkscape:connector-curvature="0" /><path
         d="m 3.708,16.247 c 0,0 -3.708,0.049 -3.708,3.461 0,3.412 0,4.203 0,4.203 0,0 7.218,0 7.243,0 L 3.708,16.247 Z M 2,19.708 c 0,-0.574 0.236,-0.932 0.572,-1.149 l 1.546,3.352 -2.118,0 0,-2.203 z"
         id="path106"
         style="fill:#ffffff;fill-opacity:1"
         inkscape:connector-curvature="0" /><path
         d="m 14.833,23.911 c 0,0 0,-0.791 0,-4.203 0,-3.412 -3.708,-3.461 -3.708,-3.461 l -3.535,7.664 7.243,0 z m -2.574,-5.349 c 0.32,0.211 0.573,0.563 0.573,1.146 l 0,2.203 -2.118,0 1.545,-3.349 z"
         id="path108"
         style="fill:#ffffff;fill-opacity:1"
         inkscape:connector-curvature="0" /><polygon
         points="7.416,16.247 4.87,16.247 7.416,21.884 9.963,16.247 "
         id="polygon110"
         style="fill:#ffffff;fill-opacity:1" /><path
         d="m 28.242,11.748 c 0,-2.021 -1.638,-3.659 -3.659,-3.659 -2.021,0 -3.659,1.638 -3.659,3.659 0,2.021 1.638,3.659 3.659,3.659 2.021,0 3.659,-1.638 3.659,-3.659 z m -3.658,1.659 c -0.915,0 -1.659,-0.744 -1.659,-1.659 0,-0.915 0.744,-1.659 1.659,-1.659 0.915,0 1.659,0.744 1.659,1.659 0,0.915 -0.745,1.659 -1.659,1.659 z"
         id="path112"
         style="fill:#ffffff;fill-opacity:1"
         inkscape:connector-curvature="0" /><path
         d="m 17.167,19.708 c 0,3.411 0,4.203 0,4.203 0,0 7.218,0 7.243,0 l -3.535,-7.664 c 0.001,0 -3.708,0.05 -3.708,3.461 z m 2,2.203 0,-2.203 c 0,-0.574 0.236,-0.932 0.572,-1.149 l 1.546,3.352 -2.118,0 z"
         id="path114"
         style="fill:#ffffff;fill-opacity:1"
         inkscape:connector-curvature="0" /><path
         d="m 28.292,16.247 -3.535,7.664 7.243,0 c 0,0 0,-0.791 0,-4.203 0,-3.412 -3.708,-3.461 -3.708,-3.461 z m 1.708,5.664 -2.118,0 1.545,-3.349 C 29.746,18.773 30,19.125 30,19.708 l 0,2.203 z"
         id="path116"
         style="fill:#ffffff;fill-opacity:1"
         inkscape:connector-curvature="0" /><polygon
         points="22.037,16.247 24.584,21.884 27.13,16.247 24.584,16.247 "
         id="polygon118"
         style="fill:#ffffff;fill-opacity:1" /></g></g><g
     display="none"
     id="g120"><circle
       display="inline"
       cx="7.416"
       cy="11.748"
       r="3.659"
       id="circle122" /><path
       display="inline"
       d="M3.708,16.247c0,0-3.708,0.049-3.708,3.461s0,4.203,0,4.203s7.218,0,7.243,0L3.708,16.247z"
       id="path124" /><path
       display="inline"
       d="M14.833,23.911c0,0,0-0.791,0-4.203s-3.708-3.461-3.708-3.461l-3.535,7.664H14.833z"
       id="path126" /><polygon
       display="inline"
       points="9.963,16.247 7.416,16.247 4.87,16.247 7.416,21.884  "
       id="polygon128" /><circle
       display="inline"
       cx="24.584"
       cy="11.748"
       r="3.659"
       id="circle130" /><path
       display="inline"
       d="M17.167,19.708c0,3.411,0,4.203,0,4.203s7.218,0,7.243,0l-3.535-7.664   C20.876,16.247,17.167,16.297,17.167,19.708z"
       id="path132" /><path
       display="inline"
       d="M28.292,16.247l-3.535,7.664H32c0,0,0-0.791,0-4.203S28.292,16.247,28.292,16.247z"
       id="path134" /><polygon
       display="inline"
       points="24.584,16.247 22.037,16.247 24.584,21.884 27.13,16.247  "
       id="polygon136" /></g></svg>