<?xml version="1.0" encoding="UTF-8" standalone="no"?>
<svg
   xmlns:dc="http://purl.org/dc/elements/1.1/"
   xmlns:cc="http://creativecommons.org/ns#"
   xmlns:rdf="http://www.w3.org/1999/02/22-rdf-syntax-ns#"
   xmlns:svg="http://www.w3.org/2000/svg"
   xmlns="http://www.w3.org/2000/svg"
   xmlns:sodipodi="http://sodipodi.sourceforge.net/DTD/sodipodi-0.dtd"
   xmlns:inkscape="http://www.inkscape.org/namespaces/inkscape"
   version="1.1"
   x="0px"
   y="0px"
   viewBox="0 0 32 40"
   enable-background="new 0 0 32 32"
   xml:space="preserve"
   id="svg2"
   inkscape:version="0.91 r13725"
   sodipodi:docname="icon-analytics.svg"><metadata
     id="metadata94"><rdf:RDF><cc:Work
         rdf:about=""><dc:format>image/svg+xml</dc:format><dc:type
           rdf:resource="http://purl.org/dc/dcmitype/StillImage" /></cc:Work></rdf:RDF></metadata><defs
     id="defs92" /><sodipodi:namedview
     pagecolor="#ffffff"
     bordercolor="#666666"
     borderopacity="1"
     objecttolerance="10"
     gridtolerance="10"
     guidetolerance="10"
     inkscape:pageopacity="0"
     inkscape:pageshadow="2"
     inkscape:window-width="664"
     inkscape:window-height="480"
     id="namedview90"
     showgrid="false"
     inkscape:zoom="5.9"
     inkscape:cx="16"
     inkscape:cy="24.071061"
     inkscape:window-x="2100"
     inkscape:window-y="285"
     inkscape:window-maximized="0"
     inkscape:current-layer="svg2" /><g
     display="none"
     id="g4"><rect
       x="-87.083"
       y="-124.589"
       display="inline"
       fill="#000000"
       width="465.553"
       height="215.397"
       id="rect6" /></g><g
     display="none"
     id="g8"><g
       display="inline"
       id="g10"><g
         id="g12"><path
           fill="#000000"
           d="M16,1c8.271,0,15,6.729,15,15s-6.729,15-15,15S1,24.271,1,16S7.729,1,16,1 M16,0C7.163,0,0,7.163,0,16     s7.163,16,16,16s16-7.163,16-16S24.837,0,16,0L16,0z"
           id="path14" /></g></g><line
       display="inline"
       fill="#000000"
       stroke="#414753"
       stroke-miterlimit="10"
       x1="6.25"
       y1="22.403"
       x2="25.75"
       y2="22.403"
       id="line16" /><line
       display="inline"
       fill="#000000"
       stroke="#414753"
       stroke-miterlimit="10"
       x1="11.378"
       y1="25.491"
       x2="20.622"
       y2="25.491"
       id="line18" /><g
       display="inline"
       id="g20"><polyline
         fill="#000000"
         stroke="#414753"
         stroke-miterlimit="10"
         points="6.953,15.414 11.825,10.542 15.159,13.876 22.255,6.78       "
         id="polyline22" /><g
         id="g24"><line
           fill="#000000"
           stroke="#414753"
           stroke-miterlimit="10"
           x1="22.255"
           y1="10.261"
           x2="22.255"
           y2="18.721"
           id="line26" /><g
           id="g28"><line
             fill="#000000"
             stroke="#414753"
             stroke-miterlimit="10"
             x1="18.527"
             y1="18.721"
             x2="18.527"
             y2="13.986"
             id="line30" /><line
             fill="#000000"
             stroke="#414753"
             stroke-miterlimit="10"
             x1="14.799"
             y1="18.721"
             x2="14.799"
             y2="15.861"
             id="line32" /><line
             fill="#000000"
             stroke="#414753"
             stroke-miterlimit="10"
             x1="11.071"
             y1="18.721"
             x2="11.071"
             y2="14.935"
             id="line34" /></g></g></g></g><g
     display="none"
     id="g36"><g
       display="inline"
       id="g38"><path
         d="M16,0.5c8.547,0,15.5,6.953,15.5,15.5c0,8.547-6.953,15.5-15.5,15.5S0.5,24.547,0.5,16C0.5,7.453,7.453,0.5,16,0.5 M16,0    C7.163,0,0,7.163,0,16s7.163,16,16,16s16-7.163,16-16S24.837,0,16,0L16,0z"
         id="path40" /></g><line
       display="inline"
       fill="none"
       stroke="#000000"
       stroke-width="0.5"
       stroke-miterlimit="10"
       x1="6.25"
       y1="22.403"
       x2="25.75"
       y2="22.403"
       id="line42" /><line
       display="inline"
       fill="none"
       stroke="#000000"
       stroke-width="0.5"
       stroke-miterlimit="10"
       x1="11.378"
       y1="25.491"
       x2="20.622"
       y2="25.491"
       id="line44" /><g
       display="inline"
       id="g46"><polyline
         fill="none"
         stroke="#000000"
         stroke-width="0.5"
         stroke-miterlimit="10"
         points="6.953,15.414 11.825,10.542     15.159,13.876 22.255,6.78   "
         id="polyline48" /><g
         id="g50"><line
           fill="none"
           stroke="#000000"
           stroke-width="0.5"
           stroke-miterlimit="10"
           x1="22.255"
           y1="10.261"
           x2="22.255"
           y2="18.721"
           id="line52" /><g
           id="g54"><line
             fill="none"
             stroke="#000000"
             stroke-width="0.5"
             stroke-miterlimit="10"
             x1="18.527"
             y1="18.721"
             x2="18.527"
             y2="13.986"
             id="line56" /><line
             fill="none"
             stroke="#000000"
             stroke-width="0.5"
             stroke-miterlimit="10"
             x1="14.799"
             y1="18.721"
             x2="14.799"
             y2="15.861"
             id="line58" /><line
             fill="none"
             stroke="#000000"
             stroke-width="0.5"
             stroke-miterlimit="10"
             x1="11.071"
             y1="18.721"
             x2="11.071"
             y2="14.935"
             id="line60" /></g></g></g></g><g
     id="g62"
     transform="translate(0,4)"><g
       id="g64"><path
         d="M 16,0 C 7.163,0 0,7.163 0,16 0,24.837 7.163,32 16,32 24.837,32 32,24.837 32,16 32,7.163 24.837,0 16,0 Z m 0,30 C 8.28,30 2,23.72 2,16 2,8.28 8.28,2 16,2 c 7.72,0 14,6.28 14,14 0,7.72 -6.28,14 -14,14 z"
         id="path66"
         style="fill:#ffffff;fill-opacity:1"
         inkscape:connector-curvature="0" /><rect
         x="6.25"
         y="21.403"
         width="19.5"
         height="2"
         id="rect68"
         style="fill:#ffffff;fill-opacity:1" /><rect
         x="11.378"
         y="24.490999"
         width="9.2440004"
         height="2"
         id="rect70"
         style="fill:#ffffff;fill-opacity:1" /><polygon
         points="15.159,15.29 22.962,7.487 21.548,6.073 15.159,12.462 11.825,9.128 6.246,14.707 7.66,16.121 11.825,11.956 "
         id="polygon72"
         style="fill:#ffffff;fill-opacity:1" /><rect
         x="21.254999"
         y="10.26"
         width="2"
         height="8.4610004"
         id="rect74"
         style="fill:#ffffff;fill-opacity:1" /><rect
         x="17.525999"
         y="13.986"
         width="2"
         height="4.7350001"
         id="rect76"
         style="fill:#ffffff;fill-opacity:1" /><rect
         x="13.799"
         y="15.861"
         width="2"
         height="2.8599999"
         id="rect78"
         style="fill:#ffffff;fill-opacity:1" /><rect
         x="10.07"
         y="14.935"
         width="2"
         height="3.786"
         id="rect80"
         style="fill:#ffffff;fill-opacity:1" /></g></g><g
     display="none"
     id="g82"><path
       display="inline"
       d="M16,0C7.163,0,0,7.163,0,16s7.163,16,16,16s16-7.163,16-16S24.837,0,16,0z M11.825,9.835l3.334,3.334   l6.742-6.742l0.707,0.707l-7.449,7.449l-3.334-3.334l-4.519,4.519L6.6,15.06L11.825,9.835z M22.755,10.26v8.461h-1V10.26H22.755z    M19.026,13.986v4.735h-1v-4.735H19.026z M15.299,15.861v2.86h-1v-2.86H15.299z M11.57,14.935v3.786h-1v-3.786H11.57z    M20.622,25.991h-9.244v-1h9.244V25.991z M25.75,22.903H6.25v-1h19.5V22.903z"
       id="path84" /></g></svg>