<?xml version="1.0" encoding="UTF-8" standalone="no"?>
<svg
   xmlns:dc="http://purl.org/dc/elements/1.1/"
   xmlns:cc="http://creativecommons.org/ns#"
   xmlns:rdf="http://www.w3.org/1999/02/22-rdf-syntax-ns#"
   xmlns:svg="http://www.w3.org/2000/svg"
   xmlns="http://www.w3.org/2000/svg"
   xmlns:sodipodi="http://sodipodi.sourceforge.net/DTD/sodipodi-0.dtd"
   xmlns:inkscape="http://www.inkscape.org/namespaces/inkscape"
   version="1.1"
   x="0px"
   y="0px"
   viewBox="0 0 32 40"
   enable-background="new 0 0 32 32"
   xml:space="preserve"
   id="svg2"
   inkscape:version="0.91 r13725"
   sodipodi:docname="icon-fire.svg"><metadata
     id="metadata50"><rdf:RDF><cc:Work
         rdf:about=""><dc:format>image/svg+xml</dc:format><dc:type
           rdf:resource="http://purl.org/dc/dcmitype/StillImage" /></cc:Work></rdf:RDF></metadata><defs
     id="defs48" /><sodipodi:namedview
     pagecolor="#ffffff"
     bordercolor="#666666"
     borderopacity="1"
     objecttolerance="10"
     gridtolerance="10"
     guidetolerance="10"
     inkscape:pageopacity="0"
     inkscape:pageshadow="2"
     inkscape:window-width="905"
     inkscape:window-height="653"
     id="namedview46"
     showgrid="false"
     inkscape:zoom="5.9"
     inkscape:cx="-33.322034"
     inkscape:cy="20"
     inkscape:window-x="1963"
     inkscape:window-y="101"
     inkscape:window-maximized="0"
     inkscape:current-layer="svg2" /><g
     display="none"
     id="g4"><rect
       x="-328.083"
       y="-85.583"
       display="inline"
       fill="#FFFFFF"
       width="465.553"
       height="215.397"
       id="rect6" /></g><g
     display="none"
     id="g8"><path
       display="inline"
       fill="#FFFFFF"
       stroke="#414753"
       stroke-miterlimit="10"
       d="M15.934,0.667c0,0,3.372,7.926,0,9.607   S11.117,4.51,11.117,4.51S7.745,5.471,8.226,9.314s2.168,6.125,0.964,7.686s-2.047,0-2.891-2.882s-3.854-3.843-3.854-3.843   s1.566,5.044,1.927,8.646c0.361,3.603-0.181,11.288,11.141,12.489c11.321,1.201,15.72-9.939,13.911-16.332   c-1.324-4.681-0.964-9.607-0.964-9.607s-3.281,1.495-3.854,4.804c-0.605,3.495-0.482,6.485-1.927,3.843   C21.234,11.475,24.726,2.349,15.934,0.667z"
       id="path10" /><line
       display="inline"
       fill="#FFFFFF"
       stroke="#414753"
       stroke-miterlimit="10"
       x1="22.421"
       y1="13.363"
       x2="7.909"
       y2="27.875"
       id="line12" /><line
       display="inline"
       fill="#FFFFFF"
       stroke="#414753"
       stroke-miterlimit="10"
       x1="29.546"
       y1="15.57"
       x2="13.913"
       y2="31.203"
       id="line14" /></g><g
     display="none"
     id="g16"><g
       display="inline"
       id="g18"><g
         id="g20"><path
           d="M16.605,0.702c5.198,1.45,5.223,5.931,5.243,9.57c0.009,1.625,0.017,3.029,0.509,3.928     c0.429,0.785,0.821,1.308,1.337,1.308c0.847,0,0.986-1.062,1.263-3.179c0.09-0.69,0.193-1.472,0.331-2.272     c0.374-2.161,1.995-3.535,2.968-4.181c-0.043,1.709,0.009,5.509,1.058,9.217c1.029,3.637,0.023,8.325-2.502,11.664     c-1.637,2.164-4.654,4.743-9.732,4.743c-0.543,0-1.105-0.03-1.67-0.09C5.115,30.318,4.673,24.103,4.381,19.991     c-0.028-0.394-0.054-0.762-0.088-1.096c-0.277-2.766-1.21-6.277-1.706-8.01c0.914,0.514,2.233,1.519,2.729,3.215     c0.701,2.396,1.401,3.991,2.538,3.991c0.467,0,0.904-0.273,1.338-0.835c0.928-1.202,0.504-2.663-0.032-4.512     c-0.319-1.101-0.681-2.348-0.867-3.833c-0.333-2.653,1.285-3.816,2.142-4.239c0.401,1.685,1.698,6.055,4.358,6.055     c0.403,0,0.816-0.104,1.227-0.309C19.191,8.837,17.432,2.975,16.605,0.702 M15.796,0c0,0,3.5,8.226,0,9.971     c-0.355,0.177-0.69,0.257-1.004,0.257c-2.785,0-3.996-6.239-3.996-6.239s-3.5,0.997-3,4.985s2.25,6.356,1,7.977     c-0.339,0.439-0.651,0.641-0.942,0.641c-0.783,0-1.421-1.452-2.058-3.632c-0.875-2.991-4-3.988-4-3.988s1.625,5.235,2,8.974     c0.375,3.739-0.188,11.716,11.562,12.962C15.95,31.97,16.525,32,17.081,32c10.473,0,14.498-10.743,12.715-17.044     c-1.374-4.858-1-9.971-1-9.971s-3.405,1.552-4,4.985c-0.461,2.659-0.515,5.036-1.101,5.036c-0.214,0-0.498-0.315-0.899-1.048     C21.296,11.217,24.921,1.745,15.796,0L15.796,0z"
           id="path22" /></g><line
         fill="none"
         stroke="#FFFFFF"
         stroke-width="0.5"
         stroke-miterlimit="10"
         x1="22.224"
         y1="13.48"
         x2="7.267"
         y2="28.438"
         id="line24" /><line
         fill="none"
         stroke="#FFFFFF"
         stroke-width="0.5"
         stroke-miterlimit="10"
         x1="29.653"
         y1="15.737"
         x2="13.97"
         y2="31.42"
         id="line26" /></g></g><g
     id="g28"
     transform="translate(-1.1859661e-4,4)"><g
       id="g30"><path
         d="m 7.854,17.591 c -0.783,0 -1.42,-1.452 -2.058,-3.632 -0.875,-2.991 -4,-3.988 -4,-3.988 0,0 1.625,5.235 2,8.974 C 4.171,22.684 3.608,30.661 15.358,31.907 15.95,31.97 16.525,32 17.081,32 27.554,32 31.579,21.257 29.796,14.956 c -1.374,-4.858 -1,-9.971 -1,-9.971 0,0 -3.405,1.552 -4,4.985 -0.461,2.659 -0.515,5.036 -1.101,5.036 -0.188,0 -0.435,-0.263 -0.763,-0.819 l 0,0 -0.002,-0.002 c -0.045,-0.076 -0.086,-0.139 -0.134,-0.226 -1.5,-2.742 2.125,-12.214 -7,-13.959 0,0 3.5,8.226 0,9.971 -0.355,0.177 -0.69,0.257 -1.004,0.257 -2.785,0 -3.996,-6.239 -3.996,-6.239 0,0 -3.5,0.997 -3,4.985 0.5,3.988 2.25,6.356 1,7.977 -0.339,0.439 -0.651,0.64 -0.942,0.64 z m 17.762,8.261 C 24.185,27.744 21.542,30 17.081,30 16.996,30 16.905,29.987 16.819,29.986 L 28.177,18.627 c -0.116,2.505 -1.016,5.182 -2.561,7.225 z m -1.921,-8.845 c 2.163,0 2.448,-2.178 2.75,-4.484 0.088,-0.676 0.189,-1.441 0.322,-2.211 0.029,-0.165 0.067,-0.324 0.115,-0.478 0.145,1.718 0.435,3.704 0.99,5.666 0.045,0.161 0.066,0.335 0.102,0.501 L 14.246,29.73 C 12.029,29.359 10.414,28.71 9.239,27.879 L 21.478,15.641 c 0.448,0.655 1.143,1.366 2.217,1.366 z M 10.6,12.326 C 10.296,11.279 9.952,10.091 9.78,8.725 9.729,8.313 9.744,7.958 9.805,7.653 c 0.884,2.182 2.436,4.574 4.987,4.574 0.637,0 1.275,-0.157 1.896,-0.467 2.859,-1.425 2.961,-4.852 2.403,-7.805 1.105,1.477 1.241,3.632 1.257,6.324 0.007,1.271 0.019,2.417 0.248,3.414 L 7.782,26.508 C 6.221,24.544 6.032,22.072 5.877,19.885 5.848,19.476 5.82,19.093 5.786,18.745 5.782,18.707 5.778,18.67 5.774,18.632 c 0.538,0.578 1.215,0.959 2.08,0.959 0.949,0 1.799,-0.477 2.525,-1.419 1.393,-1.805 0.797,-3.859 0.221,-5.846 z"
         id="path32"
         style="fill:#ffffff;fill-opacity:1;stroke:none;stroke-opacity:1"
         inkscape:connector-curvature="0" /></g></g><g
     display="none"
     id="g34"><path
       display="inline"
       d="M29.815,14.595c-1.172-4.434-0.859-9.04-0.856-9.088l0.061-0.841l-0.767,0.35   c-0.145,0.065-3.529,1.646-4.139,5.174c-0.137,0.787-0.236,1.549-0.325,2.228c-0.095,0.719-0.206,1.573-0.33,2.018   c-0.083-0.115-0.196-0.291-0.342-0.558c-0.056-0.103-0.101-0.228-0.142-0.361L7.535,28.956c1.266,1.086,3.003,1.984,5.387,2.531   L29.815,14.595z"
       id="path36" /><path
       display="inline"
       d="M17.198,32.002c4.885-0.001,7.939-2.331,9.691-4.409c2.717-3.223,3.951-7.966,3.18-11.839L14.104,31.719   c0.435,0.072,0.882,0.138,1.356,0.188C16.063,31.972,16.643,32.002,17.198,32.002z"
       id="path38" /><path
       display="inline"
       d="M3.875,18.971c0.031,0.313,0.056,0.659,0.082,1.028c0.159,2.246,0.402,5.647,2.854,8.267L22.79,12.288   c-0.034-0.529-0.039-1.12-0.042-1.729c-0.021-3.627-0.051-9.107-6.719-10.383L15.107,0l0.367,0.862   c0.886,2.085,2.654,7.76,0.237,8.965c-0.484,0.239-0.923,0.257-1.344,0.05c-1.539-0.759-2.515-4.2-2.76-5.462l-0.104-0.534   L10.98,4.03c-0.038,0.011-3.779,1.126-3.25,5.346c0.188,1.507,0.549,2.748,0.867,3.844c0.516,1.781,0.76,2.744,0.196,3.474   c-0.258,0.335-0.454,0.44-0.532,0.421c-0.18-0.033-0.684-0.407-1.483-3.138C5.872,10.876,2.73,9.841,2.598,9.798L1.684,9.507   l0.284,0.916C1.983,10.473,3.522,15.461,3.875,18.971z"
       id="path40" /></g><text
     x="0"
     y="47"
     fill="#FFFFFF"
     font-size="5px"
     font-weight="bold"
     font-family="'Helvetica Neue', Helvetica, Arial-Unicode, Arial, Sans-serif"
     id="text42">Created by Alfredo Hernandez</text>
<text
     x="0"
     y="52"
     fill="#FFFFFF"
     font-size="5px"
     font-weight="bold"
     font-family="'Helvetica Neue', Helvetica, Arial-Unicode, Arial, Sans-serif"
     id="text44">from the Noun Project</text>
</svg>