<?xml version="1.0" encoding="UTF-8" standalone="no"?>
<svg width="46px" height="18px" viewBox="0 0 46 18" version="1.1" xmlns="http://www.w3.org/2000/svg" xmlns:xlink="http://www.w3.org/1999/xlink">
    <!-- Generator: Sketch 39.1 (31720) - http://www.bohemiancoding.com/sketch -->
    <title>noun_547852_cc</title>
    <desc>Created with Sketch.</desc>
    <defs></defs>
    <g id="Page-1" stroke="none" stroke-width="1" fill="none" fill-rule="evenodd" opacity="0.531308302">
        <g id="Desktop-HD" transform="translate(-30.000000, -55.000000)" fill="#FFFFFF">
            <g id="Group-6" transform="translate(30.000000, 48.000000)">
                <g id="Group-2">
                    <g id="noun_547852_cc" transform="translate(23.000000, 16.000000) scale(-1, 1) translate(-23.000000, -16.000000) translate(0.000000, 7.000000)">
                        <g id="Group">
                            <g id="Shape">
                                <path d="M37.3,0.8 L9.5,0.8 C8.8,0.8 8.3,1.4 8.3,2 C8.3,2.7 8.9,3.2 9.5,3.2 L31.4,3.2 C30.2,4.4 29.4,5.9 29.2,7.7 L1.8,7.7 C1.1,7.7 0.6,8.3 0.6,8.9 C0.6,9.5 1.2,10.1 1.8,10.1 L29.2,10.1 C29.8,14 33.2,17.1 37.3,17.1 C41.8,17.1 45.5,13.4 45.5,8.9 C45.5,4.4 41.8,0.8 37.3,0.8 L37.3,0.8 Z M37.3,14.7 C34.2,14.7 31.6,12.1 31.6,9 C31.6,5.9 34.2,3.3 37.3,3.3 C40.4,3.3 43,5.9 43,9 C43,12.1 40.4,14.7 37.3,14.7 L37.3,14.7 Z" stroke="#FFFFFF"></path>
                                <path d="M24.9,17.2 C25.6,17.2 26.1,16.6 26.1,15.9 C26.1,15.2 25.5,14.7 24.9,14.7 L17.2,14.7 C16.5,14.7 16,15.3 16,15.9 C16,16.6 16.6,17.2 17.2,17.2 L24.9,17.2 L24.9,17.2 Z"></path>
                            </g>
                        </g>
                    </g>
                </g>
            </g>
        </g>
    </g>
</svg>