<?xml version="1.0" encoding="UTF-8" standalone="no"?>
<svg width="6px" height="12px" viewBox="0 0 6 12" version="1.1" xmlns="http://www.w3.org/2000/svg" xmlns:xlink="http://www.w3.org/1999/xlink">
    <!-- Generator: Sketch 39.1 (31720) - http://www.bohemiancoding.com/sketch -->
    <title>noun_317771_cc</title>
    <desc>Created with Sketch.</desc>
    <defs></defs>
    <g id="MyQuests-MyContent" stroke="none" stroke-width="1" fill="none" fill-rule="evenodd" opacity="0.552880131">
        <g id="Artboard" transform="translate(-614.000000, -415.000000)" fill="#000000">
            <g id="noun_317771_cc" transform="translate(614.000000, 415.000000)">
                <g id="Group">
                    <path d="M3.24444444,11.653012 L3.24444444,11.653012 L3.2,11.6963855 L3.2,11.6963855 C3.11111111,11.7975904 2.97777778,11.8554217 2.82962963,11.8554217 C2.68148148,11.8554217 2.54814815,11.7975904 2.44444444,11.6963855 L2.44444444,11.6963855 L2.44444444,11.6963855 L2.44444444,11.6963855 L0.162962963,9.35421687 C-0.0444444444,9.1373494 -0.0444444444,8.79036145 0.162962963,8.57349398 C0.37037037,8.35662651 0.711111111,8.35662651 0.918518519,8.57349398 L2.2962963,9.97590361 L2.2962963,0.65060241 C2.2962963,0.361445783 2.53333333,0.130120482 2.82962963,0.130120482 C3.12592593,0.130120482 3.36296296,0.361445783 3.36296296,0.65060241 L3.36296296,9.97590361 L4.74074074,8.57349398 C4.94814815,8.35662651 5.28888889,8.35662651 5.4962963,8.57349398 C5.7037037,8.79036145 5.7037037,9.1373494 5.4962963,9.35421687 L3.24444444,11.653012 L3.24444444,11.653012 Z" id="Shape"></path>
                </g>
            </g>
        </g>
    </g>
</svg>