<?xml version="1.0" encoding="UTF-8" standalone="no"?>
<svg width="12px" height="12px" viewBox="0 0 12 12" version="1.1" xmlns="http://www.w3.org/2000/svg" xmlns:xlink="http://www.w3.org/1999/xlink">
    <!-- Generator: Sketch 39.1 (31720) - http://www.bohemiancoding.com/sketch -->
    <title>noun_317771_cc</title>
    <desc>Created with Sketch.</desc>
    <defs></defs>
    <g id="MyQuests-MyContent" stroke="none" stroke-width="1" fill="none" fill-rule="evenodd" opacity="0.552880131">
        <g id="Artboard" transform="translate(-790.000000, -414.000000)" fill="#000000">
            <g id="noun_317771_cc" transform="translate(790.000000, 414.000000)">
                <g id="Group">
                    <path d="M11.837037,3.42650602 C11.6296296,3.64337349 11.2888889,3.64337349 11.0814815,3.42650602 L9.7037037,2.02409639 L9.7037037,11.3493976 C9.7037037,11.6385542 9.46666667,11.8698795 9.17037037,11.8698795 C8.87407407,11.8698795 8.63703704,11.6385542 8.63703704,11.3493976 L8.63703704,2.02409639 L7.25925926,3.42650602 C7.05185185,3.64337349 6.71111111,3.64337349 6.5037037,3.42650602 C6.2962963,3.20963855 6.2962963,2.8626506 6.5037037,2.64578313 L8.74074074,0.346987952 C8.74074074,0.346987952 8.74074074,0.346987952 8.75555556,0.33253012 L8.78518519,0.303614458 L8.78518519,0.303614458 C8.87407407,0.202409639 9.00740741,0.144578313 9.15555556,0.144578313 C9.3037037,0.144578313 9.43703704,0.202409639 9.54074074,0.303614458 L9.54074074,0.303614458 L9.54074074,0.303614458 L9.54074074,0.303614458 L11.8222222,2.64578313 C12.0444444,2.8626506 12.0444444,3.20963855 11.837037,3.42650602 L11.837037,3.42650602 Z M3.24444444,11.653012 L3.24444444,11.653012 L3.2,11.6963855 L3.2,11.6963855 C3.11111111,11.7975904 2.97777778,11.8554217 2.82962963,11.8554217 C2.68148148,11.8554217 2.54814815,11.7975904 2.44444444,11.6963855 L2.44444444,11.6963855 L2.44444444,11.6963855 L2.44444444,11.6963855 L0.162962963,9.35421687 C-0.0444444444,9.1373494 -0.0444444444,8.79036145 0.162962963,8.57349398 C0.37037037,8.35662651 0.711111111,8.35662651 0.918518519,8.57349398 L2.2962963,9.97590361 L2.2962963,0.65060241 C2.2962963,0.361445783 2.53333333,0.130120482 2.82962963,0.130120482 C3.12592593,0.130120482 3.36296296,0.361445783 3.36296296,0.65060241 L3.36296296,9.97590361 L4.74074074,8.57349398 C4.94814815,8.35662651 5.28888889,8.35662651 5.4962963,8.57349398 C5.7037037,8.79036145 5.7037037,9.1373494 5.4962963,9.35421687 L3.24444444,11.653012 L3.24444444,11.653012 Z" id="Shape"></path>
                </g>
            </g>
        </g>
    </g>
</svg>